<?xml version="1.0" standalone="no"?>
<!DOCTYPE svg PUBLIC "-//W3C//DTD SVG 20010904//EN"
 "http://www.w3.org/TR/2001/REC-SVG-20010904/DTD/svg10.dtd">
<svg version="1.0" xmlns="http://www.w3.org/2000/svg"
 width="386.000000pt" height="359.000000pt" viewBox="0 0 386.000000 359.000000"
 preserveAspectRatio="xMidYMid meet">

<g transform="translate(0.000000,359.000000) scale(0.100000,-0.100000)"
fill="#5e3513" stroke="none">
<path d="M944 3069 c-139 -40 -232 -202 -206 -357 14 -83 42 -135 110 -205 42
-43 54 -61 47 -71 -105 -144 -164 -249 -209 -376 -24 -65 -66 -220 -66 -242 0
-5 32 -8 70 -8 39 0 70 -2 70 -5 0 -2 -25 -41 -55 -85 -95 -140 -163 -293
-205 -460 -11 -41 -16 -78 -12 -82 6 -6 756 -397 1307 -682 l130 -67 435 226
c239 125 518 269 620 322 399 206 391 201 384 231 -49 205 -126 381 -230 529
-24 34 -44 64 -44 67 0 3 32 6 70 6 39 0 70 2 70 4 0 3 -7 37 -15 76 -38 182
-122 362 -244 527 l-24 33 57 59 c79 83 109 152 109 250 0 106 -28 173 -96
238 -68 64 -133 87 -227 81 -96 -7 -152 -41 -261 -159 l-89 -96 -80 28 c-146
52 -269 72 -435 73 -166 0 -286 -20 -434 -73 l-80 -28 -105 107 c-87 90 -113
111 -160 129 -60 22 -146 26 -202 10z m553 -914 c32 -32 35 -40 30 -77 -8 -60
-45 -93 -103 -93 -39 0 -50 5 -75 33 -63 70 -17 171 80 172 25 0 42 -9 68 -35z
m989 17 c50 -40 58 -104 18 -151 -48 -57 -135 -47 -169 19 -24 46 -19 78 19
116 27 27 42 34 73 34 21 0 48 -8 59 -18z m-413 -92 c80 -30 167 -113 209
-198 l33 -67 3 -346 3 -346 -25 -30 c-40 -48 -70 -55 -213 -51 -151 4 -178 14
-258 95 -50 50 -56 53 -103 53 -63 0 -106 -32 -124 -92 l-12 -40 -28 31 -29
32 3 347 3 347 27 57 c29 63 101 146 155 179 100 62 241 73 356 29z m47 -1168
c0 -14 -73 -79 -109 -97 -44 -22 -135 -23 -186 -1 -38 16 -115 82 -115 98 0 4
92 8 205 8 113 0 205 -4 205 -8z"/>
<path d="M1696 1519 c-70 -55 0 -229 118 -292 64 -34 165 -31 234 7 84 47 132
125 132 215 0 42 -4 53 -26 70 -25 20 -39 21 -229 21 -190 0 -204 -1 -229 -21z"/>
</g>
</svg>
